<?xml version="1.0" encoding="UTF-8"?>
<svg id="Layer_1" data-name="Layer 1" xmlns="http://www.w3.org/2000/svg" version="1.1" viewBox="0 0 64 64">
  <defs>
    <style>
      .cls-1 {
        fill: #c45a20;
      }

      .cls-1, .cls-2 {
        stroke-width: 0px;
      }

      .cls-2 {
        fill: #f08642;
      }

      .cls-3 {
        opacity: .3;
      }
    </style>
  </defs>
  <g class="cls-3">
    <path class="cls-2" d="M54.85,58.55H11.38V4.18h43.47v54.37ZM16.02,53.91h34.18V8.82H16.02v45.08Z"/>
  </g>
  <polygon class="cls-1" points="27.1 63.3 22.23 61.36 17.36 63.3 17.36 57.65 27.1 57.65 27.1 63.3"/>
  <path class="cls-1" d="M40.25,37.92c0,.88-.13,1.67-.35,2.37-.35,1.05-.88,1.53-1.58,1.53-1.23,0-2.06-1.71-2.5-5.17-.39-2.8-.74-4.6-1.01-5.39-.57-1.4-1.62-2.41-3.15-2.94,5.17-.79,7.8-3.24,7.8-7.31,0-2.19-.74-3.94-2.23-5.26-1.53-1.31-3.42-1.97-5.65-1.97h-10.25v1.14h.57c.96,0,1.58.35,1.93,1.05.17.44.26,1.18.26,2.28v21.42c0,1.14-.18,1.93-.48,2.32-.35.44-.92.66-1.71.66h-.53v1.14h8.28v-1.14h-.57c-1.4,0-2.1-1.01-2.1-3.02v-10.95c1.05,0,1.75-.04,2.02-.04,1.14,0,1.93.66,2.45,1.93.31.79.7,2.63,1.23,5.61.48,2.89.92,4.77,1.27,5.7.14.35.3.67.46.95.54.91,1.23,1.43,2.09,1.59.18.03.37.05.56.05.25,0,.49-.02.71-.05,1.1-.15,1.95-.68,2.55-1.59.72-1.08,1.07-2.71,1.07-4.89h-1.14ZM29.51,27.49c-.44,0-1.32-.04-2.54-.13v-9.15c0-1.05.09-1.8.31-2.23.26-.7.92-1.05,1.88-1.05h1.71c1.58,0,2.85.57,3.72,1.66.88,1.1,1.31,2.63,1.31,4.56,0,4.25-2.15,6.35-6.39,6.35Z"/>
  <path class="cls-1" d="M51.96,55.37H8.49V1h43.47v54.37ZM13.13,50.73h34.18V5.64H13.13v45.08Z"/>
</svg>