<?xml version="1.0" encoding="UTF-8"?>
<svg id="Layer_1" data-name="Layer 1" xmlns="http://www.w3.org/2000/svg" version="1.1" viewBox="0 0 217 50">
  <defs>
    <style>
      .cls-1 {
        fill: #c45a20;
      }

      .cls-1, .cls-2, .cls-3 {
        stroke-width: 0px;
      }

      .cls-2 {
        fill: #000;
      }

      .cls-3 {
        fill: #f08642;
      }

      .cls-4 {
        opacity: .3;
      }
    </style>
  </defs>
  <g>
    <path class="cls-2" d="M56.77,20.25c0,1.26-.36,2.32-1.07,3.18-.71.86-1.71,1.45-2.99,1.77l3.47,7.11h2.4v2.45h-4.41l-4.34-9.16h-2.75v6.7h2.5v2.45h-8.14v-2.45h2.66v-14.75h-2.66v-2.45h8.17c2.53,0,4.36.41,5.48,1.24,1.12.83,1.68,2.13,1.68,3.91ZM53.7,20.2c0-.91-.29-1.58-.86-2.01-.57-.43-1.48-.64-2.73-.64h-3.04v5.58h2.86c1.28,0,2.23-.22,2.84-.67.62-.44.93-1.2.93-2.27Z"/>
    <path class="cls-2" d="M73.84,28.59h-11.49c.17,1.31.67,2.35,1.53,3.11.85.76,1.9,1.14,3.13,1.14.9,0,1.74-.19,2.52-.56.77-.37,1.42-.95,1.94-1.72l2.37,1.07c-.75,1.17-1.73,2.05-2.94,2.64-1.21.6-2.53.89-3.96.89s-2.79-.31-3.94-.93-2.04-1.48-2.68-2.58c-.64-1.1-.96-2.35-.96-3.73s.32-2.61.95-3.72c.63-1.1,1.49-1.97,2.59-2.59s2.3-.93,3.63-.93c1.44,0,2.7.32,3.78.96,1.07.64,1.92,1.55,2.54,2.74.62,1.19.95,2.59,1,4.21ZM66.58,22.93c-1.02,0-1.91.34-2.67,1.02-.77.68-1.26,1.59-1.47,2.71h8.58c-.25-1.12-.79-2.02-1.6-2.71-.82-.68-1.76-1.02-2.83-1.02Z"/>
    <path class="cls-2" d="M86.46,22.04v-.99h2.4v5.19h-2.4c-.1-1-.5-1.76-1.2-2.29-.7-.53-1.5-.79-2.41-.79-.78,0-1.48.21-2.11.63-.62.42-1.1.98-1.44,1.7-.34.71-.51,1.49-.51,2.33,0,1.43.38,2.61,1.15,3.52.77.91,1.77,1.36,3.03,1.36,1.94,0,3.31-.9,4.11-2.7l2.24,1.07c-1.26,2.73-3.42,4.1-6.47,4.1-1.37,0-2.58-.32-3.64-.97-1.06-.64-1.88-1.53-2.46-2.65-.58-1.12-.87-2.37-.87-3.73s.29-2.56.88-3.65c.59-1.1,1.39-1.95,2.42-2.56,1.03-.61,2.17-.92,3.43-.92,1.5,0,2.78.45,3.85,1.36Z"/>
    <path class="cls-2" d="M97.54,32.36v2.4h-6.93v-2.4h2.14v-8.9h-2.14v-2.41h4.84v11.31h2.09ZM95.61,16.43c0,.44-.16.83-.48,1.15s-.7.48-1.15.48-.82-.16-1.13-.48c-.31-.32-.47-.7-.47-1.15s.16-.83.47-1.15c.31-.32.69-.48,1.13-.48s.85.16,1.16.47.47.7.47,1.16Z"/>
    <path class="cls-2" d="M115.15,27.98c0,1.28-.3,2.47-.89,3.59-.59,1.11-1.4,1.99-2.42,2.64-1.02.64-2.15.97-3.4.97-1.83,0-3.44-.7-4.81-2.11v5.45h2.67v2.4h-7.85v-2.4h2.48v-15.04h-2.3v-2.41h5v2.19c.68-.8,1.43-1.4,2.24-1.79.82-.39,1.69-.59,2.62-.59,1.3,0,2.45.32,3.46.96,1.01.64,1.79,1.5,2.35,2.59.56,1.09.84,2.27.84,3.56ZM108.41,32.7c.75,0,1.42-.22,2.02-.65.6-.43,1.07-1.03,1.41-1.77.34-.75.51-1.54.51-2.37s-.19-1.62-.56-2.33c-.37-.71-.89-1.27-1.54-1.7-.65-.42-1.39-.63-2.2-.63s-1.62.22-2.3.67-1.2,1.04-1.58,1.78c-.37.74-.56,1.55-.56,2.44,0,1.43.45,2.54,1.35,3.35.9.81,2.05,1.21,3.45,1.21Z"/>
    <path class="cls-2" d="M131.66,28.59h-11.49c.17,1.31.67,2.35,1.53,3.11.85.76,1.9,1.14,3.13,1.14.9,0,1.74-.19,2.52-.56.77-.37,1.42-.95,1.94-1.72l2.37,1.07c-.75,1.17-1.73,2.05-2.94,2.64-1.21.6-2.53.89-3.96.89s-2.79-.31-3.94-.93-2.04-1.48-2.68-2.58c-.64-1.1-.96-2.35-.96-3.73s.32-2.61.95-3.72c.63-1.1,1.49-1.97,2.59-2.59s2.3-.93,3.63-.93c1.44,0,2.7.32,3.78.96,1.07.64,1.92,1.55,2.54,2.74.62,1.19.95,2.59,1,4.21ZM124.39,22.93c-1.02,0-1.91.34-2.67,1.02-.77.68-1.26,1.59-1.47,2.71h8.58c-.25-1.12-.79-2.02-1.6-2.71-.82-.68-1.76-1.02-2.83-1.02Z"/>
    <path class="cls-2" d="M146.26,17.48l5.32,14.83h2.19v2.45h-7.75v-2.45h2.57l-1.53-4.46h-7.14l-1.53,4.46h2.49v2.45h-7.8v-2.45h2.37l5.3-14.83h-2.36v-2.37h10.21v2.37h-2.36ZM143.58,17.48h-.09l-2.78,8.06h5.58l-2.71-8.06Z"/>
    <path class="cls-2" d="M163.54,21.64v-.59h2.35v4.55h-2.35v-.83c-.78-1.12-1.85-1.68-3.21-1.68-.71,0-1.3.16-1.75.47-.45.31-.68.72-.68,1.21,0,.44.17.79.52,1.04.34.25,1.12.47,2.32.67l1.81.35c2.7.5,4.06,1.82,4.06,3.98,0,1.26-.49,2.27-1.47,3.04-.98.77-2.28,1.15-3.89,1.15-.64,0-1.28-.09-1.9-.28-.62-.19-1.14-.42-1.56-.7v.74h-2.4v-4.7h2.4v.47c.13.66.5,1.19,1.1,1.59.6.4,1.31.6,2.11.6.88,0,1.57-.15,2.07-.46.5-.31.76-.77.76-1.38,0-.44-.2-.78-.6-1-.4-.22-1.2-.45-2.41-.68l-1.4-.3c-1.38-.28-2.4-.76-3.04-1.43-.64-.68-.97-1.54-.97-2.6,0-.85.24-1.58.71-2.18.47-.6,1.08-1.06,1.82-1.36.74-.3,1.5-.46,2.28-.46,1.31,0,2.42.26,3.31.77Z"/>
    <path class="cls-2" d="M176.95,21.64v-.59h2.35v4.55h-2.35v-.83c-.78-1.12-1.85-1.68-3.21-1.68-.71,0-1.3.16-1.75.47-.45.31-.68.72-.68,1.21,0,.44.17.79.52,1.04.34.25,1.12.47,2.32.67l1.81.35c2.7.5,4.06,1.82,4.06,3.98,0,1.26-.49,2.27-1.47,3.04-.98.77-2.28,1.15-3.89,1.15-.64,0-1.28-.09-1.9-.28-.62-.19-1.14-.42-1.56-.7v.74h-2.4v-4.7h2.4v.47c.13.66.5,1.19,1.1,1.59.6.4,1.31.6,2.11.6.88,0,1.57-.15,2.07-.46.5-.31.76-.77.76-1.38,0-.44-.2-.78-.6-1-.4-.22-1.2-.45-2.41-.68l-1.4-.3c-1.38-.28-2.4-.76-3.04-1.43-.64-.68-.97-1.54-.97-2.6,0-.85.24-1.58.71-2.18.47-.6,1.08-1.06,1.82-1.36.74-.3,1.5-.46,2.28-.46,1.31,0,2.42.26,3.31.77Z"/>
    <path class="cls-2" d="M188.62,32.36v2.4h-6.93v-2.4h2.14v-8.9h-2.14v-2.41h4.84v11.31h2.09ZM186.69,16.43c0,.44-.16.83-.48,1.15s-.7.48-1.15.48-.82-.16-1.13-.48c-.31-.32-.47-.7-.47-1.15s.16-.83.47-1.15c.31-.32.69-.48,1.13-.48s.85.16,1.16.47.47.7.47,1.16Z"/>
    <path class="cls-2" d="M198.53,21.64v-.59h2.35v4.55h-2.35v-.83c-.78-1.12-1.85-1.68-3.21-1.68-.71,0-1.3.16-1.75.47-.45.31-.68.72-.68,1.21,0,.44.17.79.52,1.04.34.25,1.12.47,2.32.67l1.81.35c2.7.5,4.06,1.82,4.06,3.98,0,1.26-.49,2.27-1.47,3.04-.98.77-2.28,1.15-3.89,1.15-.64,0-1.28-.09-1.9-.28-.62-.19-1.14-.42-1.56-.7v.74h-2.4v-4.7h2.4v.47c.13.66.5,1.19,1.1,1.59.6.4,1.31.6,2.11.6.88,0,1.57-.15,2.07-.46.5-.31.76-.77.76-1.38,0-.44-.2-.78-.6-1-.4-.22-1.2-.45-2.41-.68l-1.4-.3c-1.38-.28-2.4-.76-3.04-1.43-.64-.68-.97-1.54-.97-2.6,0-.85.24-1.58.71-2.18.47-.6,1.08-1.06,1.82-1.36.74-.3,1.5-.46,2.28-.46,1.31,0,2.42.26,3.31.77Z"/>
    <path class="cls-2" d="M210.5,21.05v2.41h-2.5v7.19c0,.75.08,1.23.24,1.45.16.22.44.33.83.33.48,0,.96-.08,1.43-.25v2.44c-.83.24-1.51.37-2.02.37-1.13,0-1.94-.28-2.44-.85s-.74-1.55-.74-2.93v-7.75h-1.79v-2.41h1.79v-2.07l2.7-2.47v4.54h2.5Z"/>
  </g>
  <g class="cls-4">
    <path class="cls-3" d="M34.02,43.18H6.7V9h27.33v34.18ZM9.62,40.26h21.49V11.92H9.62v28.34Z"/>
  </g>
  <polygon class="cls-1" points="16.58 46.17 13.52 44.94 10.46 46.17 10.46 42.61 16.58 42.61 16.58 46.17"/>
  <path class="cls-1" d="M24.85,30.21c0,.55-.08,1.05-.22,1.49-.22.66-.55.96-.99.96-.77,0-1.29-1.07-1.57-3.25-.25-1.76-.47-2.89-.63-3.39-.36-.88-1.02-1.51-1.98-1.85,3.25-.5,4.9-2.04,4.9-4.6,0-1.38-.47-2.48-1.4-3.3-.96-.83-2.15-1.24-3.55-1.24h-6.44v.72h.36c.61,0,.99.22,1.21.66.11.28.17.74.17,1.43v13.47c0,.72-.11,1.21-.3,1.46-.22.28-.58.41-1.07.41h-.33v.72h5.2v-.72h-.36c-.88,0-1.32-.63-1.32-1.9v-6.88c.66,0,1.1-.03,1.27-.03.72,0,1.21.41,1.54,1.21.19.5.44,1.65.77,3.52.3,1.82.58,3,.8,3.58.09.22.19.42.29.6.34.58.77.9,1.31,1,.11.02.23.03.35.03.16,0,.31,0,.45-.03.69-.09,1.23-.43,1.6-1,.45-.68.67-1.7.67-3.07h-.71ZM18.1,23.65c-.28,0-.83-.03-1.6-.08v-5.75c0-.66.06-1.13.19-1.4.16-.44.58-.66,1.18-.66h1.07c.99,0,1.79.36,2.34,1.05.55.69.83,1.65.83,2.86,0,2.67-1.35,3.99-4.02,3.99Z"/>
  <path class="cls-1" d="M32.21,41.18H4.88V7h27.33v34.18ZM7.8,38.26h21.49V9.92H7.8v28.34Z"/>
</svg>