<?xml version="1.0" encoding="UTF-8"?>
<svg id="Layer_1" data-name="Layer 1" xmlns="http://www.w3.org/2000/svg" version="1.1" viewBox="0 0 243 256">
  <defs>
    <style>
      .cls-1 {
        fill: #f08642;
      }

      .cls-1, .cls-2 {
        stroke-width: 0px;
      }

      .cls-2 {
        fill: #fff;
      }
    </style>
  </defs>
  <path class="cls-1" d="M213.71,251H25.32c-6.8,0-12.32-5.52-12.32-12.32V17.2c0-6.8,5.52-12.32,12.32-12.32h188.39v246.12Z"/>
  <rect class="cls-1" x="219.44" y="15" width="11.45" height="229"/>
  <path class="cls-2" d="M45,141"/>
  <g>
    <path class="cls-2" d="M104.16,65.4c0,6.85-.02,13.69.01,20.54.01,2.87-.79,5.46-2.46,7.77-2.26,3.12-4.55,6.23-6.87,9.32-7.87,10.49-8.36,23.11-1.4,34.29.49.79.64,1.91.65,2.88.03,22.07-.25,44.15.16,66.21.17,8.98-8.48,13.67-16.02,10.99-4.6-1.64-7.13-5.19-7.13-10.14-.02-22.44-.02-44.87.03-67.31,0-.95.32-2.02.83-2.82,6.64-10.43,6.28-23.42-1.03-33.43-2.28-3.12-4.59-6.2-6.92-9.28-2.06-2.72-3-5.77-3-9.16,0-13.77-.01-27.54,0-41.3,0-2.31,1.05-3.4,3.06-3.39,2.04,0,3.01,1.05,3.01,3.4.02,12.38-.01,24.77.05,37.15,0,1.09.21,2.61.91,3.16.86.68,2.58,1.04,3.51.62.9-.41,1.75-1.98,1.79-3.06.17-5.9.08-11.8.08-17.7,0-6.56-.01-13.11,0-19.67,0-2.79.86-3.88,2.97-3.9,2.17-.02,3.12,1.17,3.12,4.01,0,12.31.02,24.62,0,36.93,0,1.87.42,3.35,2.51,3.71,2.28.4,3.76-.98,3.77-3.56.03-6.05,0-12.09,0-18.14,0-6.48,0-12.97,0-19.45,0-2.44,1.02-3.55,3.12-3.51,2,.05,2.94,1.12,2.94,3.49.01,12.53.02,25.06-.01,37.59,0,1.94.58,3.29,2.65,3.59,2.23.32,3.58-.99,3.58-3.5.01-10.27,0-20.54,0-30.81,0-2.4-.04-4.81.01-7.21.04-2.09,1.13-3.15,3.08-3.15,1.96,0,2.98,1.04,2.98,3.2.02,7.21,0,14.42,0,21.63h-.02Z"/>
    <rect class="cls-2" x="71.05" y="167.48" width="23.09" height="51.04"/>
  </g>
  <g>
    <rect class="cls-2" x="141.91" y="167.48" width="23.09" height="51.04"/>
    <path class="cls-2" d="M165,139.24c0,23.1.03,46.05-.02,69-.02,6.05-5.08,10.35-11.77,10.27-6.51-.08-11.25-4.47-11.25-10.53-.01-22.37,0-44.73.05-67.1,0-.76.63-1.53.99-2.28.35-.72,1.14-1.52,1.01-2.12-.14-.63-1.09-1.35-1.8-1.52-1.76-.42-3.6-.49-5.39-.79-2.13-.36-3.1-1.72-3.08-3.84.12-17.12-.29-34.26.53-51.34.67-14.03,6.7-26.08,17.23-35.65,1.75-1.59,3.75-2.43,6.14-2.37,4.44.11,7.35,3.01,7.36,7.47.02,10.86,0,21.71,0,32.57,0,17.19,0,34.39,0,51.58,0,1.14.1,2.08-1.34,2.8-1.71.86-1.16,2.41,1.33,3.85Z"/>
  </g>
</svg>